<svg width="25" height="25" viewBox="0 0 25 25" fill="none" xmlns="http://www.w3.org/2000/svg">
<path d="M23.1557 9.46723e-05H1.84426C1.36072 -0.00482639 0.894973 0.182276 0.549219 0.520347C0.203465 0.858417 0.00594493 1.31984 0 1.80337V23.2009C0.00702005 23.6837 0.205013 24.1441 0.55065 24.4813C0.896287 24.8185 1.36142 25.005 1.84426 25.0001H23.1557C23.6393 25.0039 24.1047 24.8162 24.4503 24.4779C24.7959 24.1396 24.9935 23.6783 25 23.1948V1.79723C24.9914 1.31511 24.7928 0.855887 24.4475 0.519369C24.1021 0.18285 23.6379 -0.00376222 23.1557 9.46723e-05Z" fill="#0076B2"/>
<path d="M3.70084 9.37133H7.41191V21.3119H3.70084V9.37133ZM5.5574 3.42871C5.98304 3.42871 6.39912 3.55495 6.753 3.79147C7.10688 4.02799 7.38266 4.36415 7.54545 4.75743C7.70824 5.15071 7.75073 5.58344 7.66755 6.00087C7.58436 6.4183 7.37923 6.80168 7.07811 7.10251C6.777 7.40334 6.39342 7.60811 5.97591 7.6909C5.5584 7.77369 5.12571 7.73078 4.73258 7.56762C4.33946 7.40445 4.00356 7.12835 3.76738 6.77425C3.5312 6.42014 3.40536 6.00394 3.40576 5.5783C3.40631 5.00801 3.63324 4.46125 4.03669 4.05819C4.44014 3.65512 4.98711 3.42871 5.5574 3.42871ZM9.73978 9.37133H13.2972V11.0107H13.3463C13.8422 10.0722 15.0513 9.0824 16.8566 9.0824C20.6148 9.0742 21.3115 11.5476 21.3115 14.7545V21.3119H17.6004V15.5025C17.6004 14.1193 17.5758 12.3385 15.6722 12.3385C13.7685 12.3385 13.4447 13.8467 13.4447 15.4123V21.3119H9.73978V9.37133Z" fill="white"/>
</svg>
