<svg width="28" height="29" viewBox="0 0 28 29" fill="none" xmlns="http://www.w3.org/2000/svg">
<mask id="path-1-inside-1_91_1878" fill="white">
<path d="M0.597275 13.9409C0.596619 16.3118 1.21612 18.6268 2.39409 20.6673L0.484619 27.6391L7.61937 25.7684C9.59276 26.8426 11.8038 27.4055 14.0506 27.4057H14.0565C21.4738 27.4057 27.5116 21.3701 27.5148 13.9515C27.5162 10.3566 26.1175 6.97631 23.5763 4.43312C21.0355 1.89015 17.6564 0.488945 14.056 0.487305C6.63784 0.487305 0.600447 6.52262 0.597385 13.9409"/>
</mask>
<path d="M0.597275 13.9409C0.596619 16.3118 1.21612 18.6268 2.39409 20.6673L0.484619 27.6391L7.61937 25.7684C9.59276 26.8426 11.8038 27.4055 14.0506 27.4057H14.0565C21.4738 27.4057 27.5116 21.3701 27.5148 13.9515C27.5162 10.3566 26.1175 6.97631 23.5763 4.43312C21.0355 1.89015 17.6564 0.488945 14.056 0.487305C6.63784 0.487305 0.600447 6.52262 0.597385 13.9409" fill="url(#paint0_linear_91_1878)"/>
<path d="M2.39409 20.6673L2.44231 20.6805L2.44783 20.6604L2.43739 20.6423L2.39409 20.6673ZM0.484619 27.6391L0.436395 27.6259L0.413514 27.7094L0.497301 27.6875L0.484619 27.6391ZM7.61937 25.7684L7.64328 25.7244L7.62586 25.715L7.60669 25.72L7.61937 25.7684ZM14.0506 27.4057L14.0506 27.4557H14.0506V27.4057ZM27.5148 13.9515L27.5648 13.9515V13.9515L27.5148 13.9515ZM23.5763 4.43312L23.5409 4.46846L23.5409 4.46846L23.5763 4.43312ZM14.056 0.487305L14.056 0.437305H14.056V0.487305ZM0.547275 13.9409C0.546617 16.3205 1.16841 18.6442 2.35079 20.6923L2.43739 20.6423C1.26383 18.6095 0.646622 16.3031 0.647275 13.9409L0.547275 13.9409ZM2.34586 20.6541L0.436395 27.6259L0.532843 27.6523L2.44231 20.6805L2.34586 20.6541ZM0.497301 27.6875L7.63205 25.8167L7.60669 25.72L0.471938 27.5907L0.497301 27.6875ZM7.59546 25.8123C9.57618 26.8905 11.7954 27.4555 14.0506 27.4557L14.0506 27.3557C11.8121 27.3555 9.60933 26.7947 7.64328 25.7244L7.59546 25.8123ZM14.0506 27.4557H14.0565V27.3557H14.0506V27.4557ZM14.0565 27.4557C21.5014 27.4557 27.5616 21.3977 27.5648 13.9515L27.4648 13.9515C27.4616 21.3424 21.4462 27.3557 14.0565 27.3557V27.4557ZM27.5648 13.9515C27.5662 10.3434 26.1623 6.95034 23.6117 4.39778L23.5409 4.46846C26.0728 7.00227 27.4662 10.3699 27.4648 13.9515L27.5648 13.9515ZM23.6117 4.39778C21.0615 1.84542 17.6697 0.438951 14.056 0.437305L14.056 0.537305C17.6431 0.538939 21.0095 1.93488 23.5409 4.46846L23.6117 4.39778ZM14.056 0.437305C6.61023 0.437305 0.550459 6.49499 0.547385 13.9408L0.647385 13.9409C0.650436 6.55024 6.66545 0.537305 14.056 0.537305V0.437305Z" fill="black" mask="url(#path-1-inside-1_91_1878)"/>
<path d="M2.00205 20.9104L2.00481 20.9003L1.99959 20.8913C0.781823 18.7815 0.141267 16.388 0.142031 13.9361C0.145088 6.26569 6.38774 0.025 14.0586 0.025C17.7813 0.0265285 21.275 1.47552 23.9026 4.10479C26.5299 6.7344 27.9763 10.2299 27.975 13.9473C27.9717 21.6176 21.7282 27.8592 14.0586 27.8592H14.0526C11.7238 27.8583 9.43521 27.274 7.40255 26.1657L7.39383 26.161L7.38424 26.1635L0.0355525 28.0903L2.00205 20.9104ZM4.22127 20.115L4.22128 20.115L4.49137 20.5438L3.3232 24.8076L3.31176 24.8494L3.35365 24.8384L7.72927 23.6912L8.14355 23.9369C9.92609 24.9946 11.97 25.5542 14.054 25.5553H14.0586C20.4591 25.5553 25.6683 20.3472 25.6711 13.9464C25.6719 10.8443 24.4654 7.92743 22.2729 5.73327C20.0802 3.53933 17.165 2.33007 14.063 2.32875C7.65755 2.32875 2.44841 7.53623 2.446 13.937C2.44512 16.1304 3.05872 18.2665 4.22127 20.115Z" fill="url(#paint1_linear_91_1878)" stroke="black" stroke-width="0.05"/>
<path d="M8.41643 14.4287L8.41272 14.4237C8.31993 14.2997 7.97056 13.8328 7.64231 13.1864C7.3093 12.5306 6.99912 11.6921 6.99912 10.8409C6.99912 9.2468 7.78163 8.4121 8.14371 8.02587C8.16853 7.99939 8.19138 7.97501 8.21187 7.95265L8.21187 7.95265C8.52538 7.61033 8.89567 7.52501 9.12225 7.52501C9.13735 7.52501 9.15244 7.52501 9.16753 7.52501C9.38455 7.52497 9.59941 7.52493 9.7888 7.53308L9.78885 7.53308C9.91329 7.53818 10.0381 7.54375 10.1644 7.61699C10.2906 7.69012 10.4216 7.83296 10.5509 8.12025C10.7055 8.46411 10.952 9.0665 11.1709 9.60521C11.2035 9.68544 11.2355 9.7643 11.2665 9.84071C11.4433 10.2762 11.5876 10.6318 11.6253 10.7069M8.41643 14.4287L11.6252 10.7069C11.6252 10.7069 11.6252 10.7069 11.6253 10.7069M8.41643 14.4287C8.42987 14.4466 8.45527 14.4842 8.49228 14.539C8.94056 15.2031 11.0931 18.3916 14.3562 19.6784C15.8267 20.2583 16.7099 20.4899 17.3043 20.5695C17.7835 20.6338 18.075 20.5995 18.3384 20.5684C18.4014 20.561 18.4628 20.5538 18.5248 20.5482L18.5248 20.5482C18.8383 20.5197 19.3496 20.3116 19.8198 20.0074C20.2904 19.7031 20.7126 19.3075 20.8548 18.9088L20.8783 18.9172L20.8548 18.9088C20.9992 18.5042 21.0714 18.1287 21.0966 17.8366C21.1092 17.6906 21.1101 17.5658 21.1025 17.4689C21.0948 17.3707 21.0787 17.305 21.0602 17.2739C21.0203 17.2075 20.9457 17.1521 20.8337 17.0906C20.7655 17.0532 20.6857 17.0147 20.594 16.9705C20.5352 16.9421 20.4714 16.9113 20.4027 16.877C20.2287 16.79 19.7135 16.5358 19.202 16.2888C18.6896 16.0415 18.1832 15.8025 18.025 15.7449C18.025 15.7449 18.025 15.7449 18.025 15.7449L18.0336 15.7214C17.7142 15.6052 17.482 15.5473 17.2497 15.8961L8.41643 14.4287ZM11.6253 10.7069C11.7107 10.8781 11.7653 11.0724 11.6541 11.2948C11.6365 11.3301 11.6202 11.3633 11.6047 11.3949C11.5177 11.5724 11.455 11.7003 11.3097 11.8706M11.6253 10.7069L10.7882 12.4792M10.7882 12.4792C10.8914 12.3763 11.0097 12.2324 11.129 12.0873C11.1896 12.0136 11.2504 11.9397 11.3097 11.8706M10.7882 12.4792C10.7015 12.5653 10.6083 12.6596 10.5643 12.778M10.7882 12.4792L10.5643 12.778M11.3097 11.8706L11.3287 11.8868L11.3097 11.8706C11.3097 11.8706 11.3097 11.8706 11.3097 11.8706ZM10.5643 12.778C10.5194 12.8988 10.5268 13.0409 10.6313 13.2201L10.5643 12.778ZM9.78987 7.5081C9.59992 7.49993 9.38454 7.49997 9.16769 7.50001C9.15254 7.50001 9.13739 7.50001 9.12225 7.50001C8.88993 7.50001 8.51248 7.5874 8.19343 7.93576C8.17298 7.9581 8.15014 7.98246 8.1253 8.00895C7.76246 8.39597 6.97412 9.23685 6.97412 10.8409C6.97412 12.5429 8.20529 14.1882 8.39269 14.4387L9.78987 7.5081ZM15.8271 17.4824C15.9551 17.4668 16.0618 17.3967 16.1658 17.2775L10.6314 13.2201C10.835 13.5697 11.5357 14.7126 12.5742 15.6386C13.6902 16.6335 14.6608 17.0547 15.1511 17.2674C15.247 17.309 15.3245 17.3426 15.3811 17.371L15.3811 17.371C15.5569 17.459 15.7001 17.4978 15.8271 17.4824Z" fill="white" stroke="black" stroke-width="0.05"/>
<defs>
<linearGradient id="paint0_linear_91_1878" x1="1351.99" y1="2715.67" x2="1351.99" y2="0.487305" gradientUnits="userSpaceOnUse">
<stop stop-color="#1FAF38"/>
<stop offset="1" stop-color="#60D669"/>
</linearGradient>
<linearGradient id="paint1_linear_91_1878" x1="1400" y1="2812.55" x2="1400" y2="0" gradientUnits="userSpaceOnUse">
<stop stop-color="#F9F9F9"/>
<stop offset="1" stop-color="white"/>
</linearGradient>
</defs>
</svg>
