<svg width="17" height="17" viewBox="0 0 17 17" fill="none" xmlns="http://www.w3.org/2000/svg">
<path d="M8.5 0C6.81886 0 5.17547 0.498516 3.77766 1.43251C2.37984 2.3665 1.29037 3.69402 0.647028 5.24719C0.00368292 6.80036 -0.164645 8.50943 0.163329 10.1583C0.491303 11.8071 1.30085 13.3217 2.4896 14.5104C3.67834 15.6992 5.1929 16.5087 6.84173 16.8367C8.49057 17.1646 10.1996 16.9963 11.7528 16.353C13.306 15.7096 14.6335 14.6202 15.5675 13.2223C16.5015 11.8245 17 10.1811 17 8.5C16.9976 6.24639 16.1013 4.08576 14.5078 2.49222C12.9142 0.898677 10.7536 0.00237985 8.5 0ZM8.5 15.6923C7.0775 15.6923 5.68694 15.2705 4.50417 14.4802C3.3214 13.6899 2.39955 12.5666 1.85518 11.2524C1.31081 9.93815 1.16838 8.49202 1.44589 7.09685C1.72341 5.70168 2.40841 4.42013 3.41427 3.41427C4.42014 2.40841 5.70168 1.72341 7.09685 1.44589C8.49202 1.16837 9.93816 1.31081 11.2524 1.85517C12.5666 2.39954 13.6899 3.3214 14.4802 4.50417C15.2705 5.68694 15.6923 7.07749 15.6923 8.5C15.6901 10.4069 14.9317 12.235 13.5833 13.5833C12.235 14.9317 10.4069 15.6901 8.5 15.6923ZM5.88462 8.5C5.88462 9.04892 6.05733 9.58393 6.37829 10.0292C6.69925 10.4745 7.15219 10.8076 7.67295 10.9812C8.1937 11.1548 8.75587 11.1601 9.27983 10.9964C9.80378 10.8327 10.263 10.5084 10.5923 10.0692C10.6965 9.9305 10.8515 9.83883 11.0232 9.81438C11.195 9.78993 11.3694 9.83471 11.5081 9.93887C11.6468 10.043 11.7385 10.198 11.7629 10.3698C11.7874 10.5415 11.7426 10.7159 11.6385 10.8547C11.1443 11.5132 10.4555 11.9995 9.66962 12.2449C8.88372 12.4902 8.04056 12.482 7.25954 12.2216C6.47853 11.9611 5.79925 11.4616 5.3179 10.7937C4.83655 10.1257 4.57754 9.3233 4.57754 8.5C4.57754 7.6767 4.83655 6.87427 5.3179 6.20634C5.79925 5.53842 6.47853 5.03885 7.25954 4.7784C8.04056 4.51795 8.88372 4.50981 9.66962 4.75514C10.4555 5.00047 11.1443 5.48683 11.6385 6.14534C11.69 6.21403 11.7276 6.2922 11.7489 6.3754C11.7703 6.4586 11.7751 6.54519 11.7629 6.63023C11.7508 6.71527 11.7221 6.79709 11.6784 6.87103C11.6347 6.94496 11.5768 7.00956 11.5081 7.06113C11.4394 7.1127 11.3612 7.15024 11.278 7.1716C11.1948 7.19296 11.1082 7.19772 11.0232 7.18562C10.9382 7.17351 10.8563 7.14477 10.7824 7.10105C10.7085 7.05732 10.6439 6.99946 10.5923 6.93077C10.263 6.49163 9.80378 6.16725 9.27983 6.00358C8.75587 5.83991 8.1937 5.84524 7.67295 6.01883C7.15219 6.19241 6.69925 6.52545 6.37829 6.97076C6.05733 7.41607 5.88462 7.95108 5.88462 8.5Z" fill="#ABABAB"/>
</svg>
