<svg width="10" height="8" viewBox="0 0 10 8" fill="none" xmlns="http://www.w3.org/2000/svg">
<path d="M5.56651 0.209136C5.70046 0.0752264 5.88212 0 6.07152 0C6.26093 0 6.44258 0.0752264 6.57653 0.209136L9.79086 3.42347C9.92477 3.55742 10 3.73907 10 3.92848C10 4.11788 9.92477 4.29954 9.79086 4.43349L6.57653 7.64782C6.44181 7.77794 6.26138 7.84993 6.07409 7.84831C5.88681 7.84668 5.70765 7.77156 5.57521 7.63912C5.44278 7.50668 5.36766 7.32753 5.36603 7.14024C5.3644 6.95296 5.4364 6.77252 5.56651 6.63781L7.50011 4.64278H0.714297C0.524853 4.64278 0.343169 4.56752 0.209213 4.43356C0.075256 4.29961 0 4.11792 0 3.92848C0 3.73904 0.075256 3.55735 0.209213 3.4234C0.343169 3.28944 0.524853 3.21418 0.714297 3.21418H7.50011L5.56651 1.21915C5.4326 1.0852 5.35738 0.90355 5.35738 0.714144C5.35738 0.524738 5.4326 0.343087 5.56651 0.209136Z" fill="black"/>
</svg>
