<svg width="149" height="160" viewBox="0 0 149 160" fill="none" xmlns="http://www.w3.org/2000/svg">
<path fill-rule="evenodd" clip-rule="evenodd" d="M19.9543 54.4759C17.5722 42.7798 19.9176 30.6197 26.4746 20.6708C33.0315 10.7219 43.2629 3.79915 54.9179 1.42543C66.5729 -0.948283 78.6968 1.4215 88.6225 8.01346C98.5482 14.6054 105.463 24.8796 107.845 36.5757L115.169 35.0841C119.054 34.2928 123.095 35.0827 126.404 37.2801C129.712 39.4774 132.017 42.9021 132.811 46.8008L147.781 120.302C148.575 124.2 147.793 128.254 145.607 131.57C143.422 134.886 140.011 137.194 136.126 137.985L33.5874 158.869C29.7024 159.66 25.6611 158.87 22.3525 156.673C19.044 154.475 16.7391 151.051 15.9451 147.152L0.975608 73.6511C0.181576 69.7524 0.963376 65.6991 3.14902 62.3828C5.33467 59.0665 8.74512 56.7589 12.6301 55.9676L19.9543 54.4759ZM57.9118 16.1256C65.6818 14.5431 73.7644 16.1229 80.3815 20.5176C86.9987 24.9122 91.6083 31.7617 93.1964 39.5591L34.6027 51.4926C33.0147 43.6951 34.5783 35.5884 38.9496 28.9558C43.3208 22.3232 50.1418 17.708 57.9118 16.1256ZM87.5297 86.6429C88.0551 89.2232 87.8945 91.896 87.064 94.3924C86.2334 96.8889 84.7622 99.1212 82.7982 100.865L84.6963 110.185C85.0933 112.134 84.7024 114.161 83.6096 115.819C82.5168 117.477 80.8116 118.631 78.8691 119.027C76.9266 119.422 74.9059 119.027 73.2516 117.929C71.5973 116.83 70.4449 115.117 70.0479 113.168L68.1498 103.848C65.0278 102.799 62.3368 100.746 60.494 98.0075C58.6513 95.2692 57.7598 91.9987 57.9578 88.7031C58.1557 85.4075 59.4322 82.271 61.5891 79.7801C63.746 77.2892 66.6629 75.583 69.8874 74.9261C73.7724 74.1349 77.8137 74.9248 81.1222 77.1221C84.4308 79.3194 86.7356 82.7442 87.5297 86.6429Z" fill="#DDDDDD"/>
</svg>
